<?xml version="1.0" encoding="utf-8"?>
<!-- Generator: Adobe Illustrator 21.0.2, SVG Export Plug-In . SVG Version: 6.00 Build 0)  -->
<svg version="1.1" id="Livello_1" xmlns="http://www.w3.org/2000/svg" xmlns:xlink="http://www.w3.org/1999/xlink" x="0px" y="0px"
	 viewBox="0 0 301.5 135" style="enable-background:new 0 0 301.5 135;" xml:space="preserve">
<style type="text/css">
	.st0{fill:#602480;}
	.st1{fill:#2D9ED3;}
	.st2{fill:none;stroke:#999999;stroke-width:0.5;stroke-linecap:round;stroke-linejoin:round;}
	
		.st3{fill:none;stroke:#999999;stroke-width:0.5;stroke-linecap:round;stroke-linejoin:round;stroke-dasharray:1.997,1.997,1.997,1.997;}
	
		.st4{fill:none;stroke:#999999;stroke-width:0.5;stroke-linecap:round;stroke-linejoin:round;stroke-dasharray:1.997,1.997,1.997,1.997,1.997,1.997;}
	.st5{fill:#00B6E0;}
	.st6{fill:#00CEBA;}
	.st7{fill:#999999;}
</style>
<g>
	<g>
		<polygon class="st0" points="27.1,29.6 30.3,33.9 23.8,38.7 20.6,34.4 		"/>
		<polygon class="st0" points="39.9,20 43.1,24.2 36.7,29.1 33.5,24.8 		"/>
		<polygon class="st0" points="100.2,22.9 93.4,21.6 94.3,16.3 101.1,17.6 		"/>
		<polygon class="st0" points="78.5,13.6 86.4,15 85.5,20.2 77.6,18.9 		"/>
		<polygon class="st0" points="62.7,10.9 70.6,12.3 69.7,17.5 61.8,16.2 		"/>
		<polygon class="st0" points="47.5,95.5 51.4,102.5 46.7,105.1 42.8,98.1 		"/>
		<rect x="36.6" y="82.3" transform="matrix(0.872 -0.4895 0.4895 0.872 -37.2218 30.2597)" class="st0" width="5.3" height="8"/>
		<polygon class="st0" points="79.5,107.1 82,111.9 74.9,115.6 72.4,110.9 		"/>
		
			<rect x="87.4" y="101.2" transform="matrix(0.8828 -0.4698 0.4698 0.8828 -38.0726 55.1101)" class="st0" width="8" height="5.3"/>
		<polygon class="st0" points="107.8,92.1 110.4,96.8 103.3,100.6 100.8,95.8 		"/>
		<path class="st0" d="M108.1,30.6L108.1,30.6h-1c-3.5,0-8.3-3.2-8.3-8.3c0-5.7,3.3-9.6,8.3-9.6c5.9,0,9.6,4.3,9.6,8.3
			c0,3.7-1.1,6.4-3.2,8C111.6,30.4,109.5,30.6,108.1,30.6z M107.1,18c-2.6,0-3,2.7-3,4.3c0,2.1,2.4,3,3,3h1l0,0
			c0.7,0,1.6-0.1,2.2-0.5c0.7-0.5,1.1-1.9,1.1-3.8C111.3,19.9,110,18,107.1,18z"/>
		<path class="st0" d="M123,93.5L123,93.5h-1c-3.5,0-8.3-3.2-8.3-8.3c0-5.7,3.3-9.6,8.3-9.6c5.9,0,9.6,4.3,9.6,8.3
			c0,3.7-1.1,6.4-3.2,8C126.6,93.3,124.5,93.5,123,93.5z M122,80.9c-2.6,0-3,2.7-3,4.3c0,2.1,2.4,3,3,3h1l0,0c0.7,0,1.6-0.1,2.2-0.5
			c0.7-0.5,1.1-1.9,1.1-3.8C126.3,82.9,125,80.9,122,80.9z"/>
		<path class="st0" d="M101.8,133.8L101.8,133.8h-1c-3.5,0-8.3-3.2-8.3-8.3c0-5.7,3.3-9.6,8.3-9.6c5.9,0,9.6,4.3,9.6,8.3
			c0,3.7-1.1,6.4-3.2,8C105.4,133.6,103.2,133.8,101.8,133.8z M100.8,121.2c-2.6,0-3,2.7-3,4.3c0,2.1,2.4,3,3,3h1l0,0
			c0.7,0,1.6-0.1,2.2-0.5c0.7-0.5,1.1-1.9,1.1-3.8C105,123.2,103.8,121.2,100.8,121.2z"/>
		<path class="st0" d="M59.5,129.8L59.5,129.8h-1c-3.5,0-8.3-3.2-8.3-8.3c0-5.7,3.3-9.6,8.3-9.6c5.9,0,9.6,4.3,9.6,8.3
			c0,3.7-1.1,6.4-3.2,8C63.1,129.6,61,129.8,59.5,129.8z M58.5,117.2c-2.5,0-3,2.3-3,4.3c0,2.1,2.4,3,3,3h1l0,0
			c0.7,0,1.6-0.1,2.2-0.5c0.7-0.5,1.1-1.9,1.1-3.8C62.8,119.2,61.5,117.2,58.5,117.2z"/>
		<path class="st0" d="M26.3,119.6L26.3,119.6h-1c-3.5,0-8.3-3.2-8.3-8.3c0-5.8,3.3-9.6,8.3-9.6c5.9,0,9.6,4.3,9.6,8.3
			c0,3.7-1.1,6.4-3.2,8C29.9,119.5,27.8,119.6,26.3,119.6z M25.4,107c-2.6,0-3,2.7-3,4.3c0,2.1,2.4,3,3,3h1l0,0
			c0.7,0,1.6-0.1,2.2-0.5c0.7-0.5,1.1-1.9,1.1-3.8C29.6,109,28.3,107,25.4,107z"/>
		<path class="st0" d="M33.8,86.3L33.8,86.3h-1c-3.5,0-8.3-3.2-8.3-8.3c0-5.7,3.3-9.6,8.3-9.6c5.9,0,9.6,4.3,9.6,8.3
			c0,3.7-1.1,6.4-3.2,8C37.4,86.1,35.3,86.3,33.8,86.3z M32.8,73.7c-2.6,0-3,2.7-3,4.3c0,2.1,2.4,3,3,3h1l0,0c0.7,0,1.6-0.1,2.2-0.5
			c0.7-0.5,1.1-1.9,1.1-3.8C37.1,75.7,35.8,73.7,32.8,73.7z"/>
		<path class="st0" d="M15.6,44.9l1.8-1.4l-3.2-4.3l-2,1.5C14.2,41.6,15.3,43.3,15.6,44.9z"/>
		<path class="st0" d="M9.7,55.1L9.7,55.1h-1c-3.5,0-8.3-3.2-8.3-8.3c0-5.7,3.3-9.6,8.3-9.6c5.9,0,9.6,4.3,9.6,8.3
			c0,3.7-1.1,6.4-3.2,8C13.3,55,11.2,55.1,9.7,55.1z M8.7,42.5c-2.6,0-3,2.7-3,4.3c0,2.1,2.4,3,3,3h1l0,0c0.7,0,1.6-0.1,2.2-0.5
			c0.7-0.5,1.1-1.9,1.1-3.8C13,44.5,11.7,42.5,8.7,42.5z"/>
		<path class="st0" d="M51.3,12.9c0-0.5,0.1-1.1,0.1-1.6l-5.1,3.8l3.2,4.3l3.5-2.6C52.1,15.9,51.3,14.6,51.3,12.9z"/>
		<path class="st0" d="M58,21.2L58,21.2h-1c-3.5,0-8.3-3.2-8.3-8.3c0-5.7,3.3-9.6,8.3-9.6c5.9,0,9.6,4.3,9.6,8.3
			c0,3.7-1.1,6.4-3.2,8C61.5,21.1,59.4,21.2,58,21.2z M57,8.6c-2.6,0-3,2.7-3,4.3c0,2.1,2.4,3,3,3h1l0,0c0.7,0,1.6-0.1,2.2-0.5
			c0.7-0.5,1.1-1.9,1.1-3.8C61.2,10.6,59.9,8.6,57,8.6z"/>
		<path class="st0" d="M25.4,104.4c1.8,0,3.2,0.5,4.4,1.3l4.4-22c-0.5,0-0.9,0-1.3,0c-1,0-2.6-0.6-3.8-1.7l-4.5,22.5
			C24.8,104.4,25.1,104.4,25.4,104.4z"/>
		<path class="st0" d="M58.2,114.6l-2.8-5.1l-4.7,2.6l3,5.4C54.5,115.8,56,114.7,58.2,114.6z"/>
		<path class="st0" d="M53,122.6c-0.1-0.4-0.1-0.7-0.1-1.1c0-1.6,0.3-3.1,1-4.2L32.3,110v0.1c0,2.5-0.5,4.1-1.3,5.1L53,122.6z"/>
		<path class="st0" d="M65.5,120.2c0,0.2,0,0.3,0,0.5l2.4-1.3l-2.5-4.7l-2.3,1.2C64.6,117.1,65.5,118.7,65.5,120.2z"/>
		<path class="st0" d="M116.8,87.2l-15.3,31.4c2.1,0.2,3.8,1.1,4.8,2.3L121,90.6C119.6,90.3,117.7,89.2,116.8,87.2z"/>
		<path class="st0" d="M58.8,16.7l-5.2,1l4,20.5c2.2,0.1,4.1,0.6,5.7,1.3L58.8,16.7z"/>
		<path class="st0" d="M37.9,72.9c1.2,1.1,1.9,2.5,1.9,3.8c0,0.4,0,0.9-0.1,1.2l11-5c-1.1-1.4-2.2-2.8-3.2-4.4L37.9,72.9z"/>
		<path class="st0" d="M42,52.1l-26.4-4.7c-0.5,3.4-2.2,4.6-3.9,5L28,74.5c0.8-1.8,2.2-3,4.3-3.2L19.1,53.4l23.4,4.2
			c-0.4-1.6-0.6-3.2-0.6-4.7C41.9,52.6,42,52.3,42,52.1z"/>
		<path class="st0" d="M57.3,114.7c0.4-0.1,0.8-0.1,1.2-0.1c1.6,0,3,0.4,4.1,1.1L66,86c-1.2-0.2-2.6-0.8-5.1-2.7L57.3,114.7z"/>
		<path class="st0" d="M96.1,121.3c0.9-1.6,2.4-2.7,4.6-2.8L76,80.4c-1.3,1.2-2.7,2.4-4.2,3.4L96.1,121.3z"/>
		<polygon class="st0" points="67.1,76.4 67.2,75.9 66.9,76.1 		"/>
		<path class="st0" d="M112.6,26.4c-1.5,1.8-3.7,1.7-5.1,1.7l11.4,48.7l-30.2-13c-0.8,1.6-1.7,3.2-2.6,4.7L117,81.8
			c0.8-2.1,2.5-3.6,5.1-3.6c1,0,1.9,0.2,2.8,0.5L112.6,26.4z"/>
		<path class="st0" d="M89,44.8l16.4-17.1c-1.5-0.6-3.2-1.8-3.8-3.8l-16.3,17C86.8,42,88,43.3,89,44.8z"/>
	</g>
	<path class="st1" d="M76.7,42.8c-8.4,0-10,7.4-10,7.4s-1.3-7.4-10-7.4c-5.5,0-10,4.5-10,10c0,13.1,18.3,28.5,20.1,28.5
		c2.5,0,20.1-15.6,20.1-28.5C86.8,47.3,82.3,42.8,76.7,42.8z"/>
</g>
<g>
	<g>
		<path class="st7" d="M149.1,8.3c-0.8,0-1.4-0.6-1.4-1.4V1.4c0-0.8,0.6-1.4,1.4-1.4c0.8,0,1.4,0.6,1.4,1.4v5.5
			C150.5,7.7,149.9,8.3,149.1,8.3z"/>
	</g>
	<g>
		<path class="st7" d="M149.1,52.4c-0.8,0-1.4-0.6-1.4-1.4V40c0-0.8,0.6-1.4,1.4-1.4c0.8,0,1.4,0.6,1.4,1.4v11
			C150.5,51.7,149.9,52.4,149.1,52.4z M149.1,30.3c-0.8,0-1.4-0.6-1.4-1.4v-11c0-0.8,0.6-1.4,1.4-1.4c0.8,0,1.4,0.6,1.4,1.4v11
			C150.5,29.7,149.9,30.3,149.1,30.3z"/>
	</g>
	<g>
		<path class="st7" d="M149.1,118.5c-0.8,0-1.4-0.6-1.4-1.4v-11c0-0.8,0.6-1.4,1.4-1.4c0.8,0,1.4,0.6,1.4,1.4v11
			C150.5,117.8,149.9,118.5,149.1,118.5z M149.1,96.4c-0.8,0-1.4-0.6-1.4-1.4V84c0-0.8,0.6-1.4,1.4-1.4c0.8,0,1.4,0.6,1.4,1.4v11
			C150.5,95.8,149.9,96.4,149.1,96.4z M149.1,74.4c-0.8,0-1.4-0.6-1.4-1.4V62c0-0.8,0.6-1.4,1.4-1.4c0.8,0,1.4,0.6,1.4,1.4v11
			C150.5,73.8,149.9,74.4,149.1,74.4z"/>
	</g>
	<g>
		<path class="st7" d="M149.1,135c-0.8,0-1.4-0.6-1.4-1.4v-5.5c0-0.8,0.6-1.4,1.4-1.4c0.8,0,1.4,0.6,1.4,1.4v5.5
			C150.5,134.4,149.9,135,149.1,135z"/>
	</g>
</g>
<g>
	
		<image style="overflow:visible;" width="400" height="400" xlink:href="vI4n6POB_400x400.jpg"  transform="matrix(0.3375 0 0 0.3375 166.4599 -6.835938e-05)">
	</image>
</g>
</svg>
